<!DOCTYPE svg PUBLIC "-//W3C//DTD SVG 1.1//EN" "http://www.w3.org/Graphics/SVG/1.1/DTD/svg11.dtd">
<!-- Uploaded to: SVG Repo, www.svgrepo.com, Transformed by: SVG Repo Mixer Tools -->
<svg height="800px" width="800px" version="1.1" id="Layer_1" xmlns="http://www.w3.org/2000/svg" xmlns:xlink="http://www.w3.org/1999/xlink" viewBox="0 0 512 512" xml:space="preserve" fill="#000000">
<g id="SVGRepo_bgCarrier" stroke-width="0"/>
<g id="SVGRepo_tracerCarrier" stroke-linecap="round" stroke-linejoin="round"/>
<g id="SVGRepo_iconCarrier"> <path style="fill:#FFDA44;" d="M256.043,311.565c-5.543,0-10.968-2.707-14.12-7.674c-15.619-24.51-36.943-45.804-61.683-61.566 c-4.804-3.065-7.715-8.37-7.715-14.076v-103.5c0-52.413,29.128-99.544,76.009-122.989c4.696-2.347,10.24-2.347,14.936,0 c46.88,23.445,76.012,70.576,76.012,122.989v103.533c0,5.695-2.905,11-7.709,14.076c-24.674,15.75-45.958,37-61.567,61.468 c-1.424,2.239-3.37,4.108-5.663,5.446C261.879,310.826,258.944,311.565,256.043,311.565z"/> <path style="fill:#FFCD00;" d="M256.045,311.565c2.902,0,5.836-0.739,8.499-2.294c2.294-1.337,4.238-3.207,5.662-5.446 c15.608-24.467,36.894-45.717,61.568-61.468c4.804-3.076,7.709-8.38,7.709-14.076V124.75c0-52.413-29.131-99.544-76.011-122.989 C261.124,0.587,258.23,0,256.004,0v311.56C256.004,311.56,256.03,311.565,256.045,311.565z"/> <path style="fill:#FFEB99;" d="M222.608,155.826h-50.081v33.391h50.081c9.217,0,16.696-7.479,16.696-16.696 S231.825,155.826,222.608,155.826z"/> <path style="fill:#FFA733;" d="M334.769,89.043H289.39c-9.217,0-16.696,7.479-16.696,16.696s7.479,16.696,16.696,16.696h50.007 C339.208,110.97,337.626,99.78,334.769,89.043z"/> <path style="fill:#80E471;" d="M256.001,512c-3.957,0-7.881-0.207-11.752-0.598c-0.956-0.087-2.011-0.25-3.055-0.413l-2.435-0.348 c-1.848-0.239-3.695-0.489-5.501-0.848c-0.413-0.087-0.813-0.185-1.214-0.294c-53.912-11.238-92.91-59.14-92.91-114.369v-92.294 c0-39.684-22.057-75.37-57.557-93.119c-7.141-3.576-10.756-11.696-8.626-19.391c2.13-7.696,9.407-13.01,17.375-12.184 c65.044,5,125.412,37.456,165.717,88.131c40.304-50.685,100.652-83.141,165.63-88.131c7.869-0.771,14.837,4.206,17.195,11.576 c2.347,7.369-0.685,15.402-7.326,19.38l-14.737,8.836c-27.522,19.511-43.932,51.207-43.932,84.902v92.295 C372.873,459.576,320.447,512,256.001,512z"/> <path style="fill:#60DD4D;" d="M421.672,178.141c-64.978,4.989-125.323,37.446-165.628,88.131c-0.013-0.017-0.041-0.032-0.041-0.051 V512c64.556,0,116.87-52.424,116.87-116.87v-92.294c0-33.695,16.411-65.391,43.932-84.902l14.738-8.836 c6.642-3.978,9.673-12.011,7.325-19.38C436.51,182.348,429.543,177.369,421.672,178.141z"/> </g>
</svg>