<?xml version="1.0" encoding="iso-8859-1"?>
<!-- Uploaded to: SVG Repo, www.svgrepo.com, Generator: SVG Repo Mixer Tools -->
<svg height="800px" width="800px" version="1.1" id="Layer_1" xmlns="http://www.w3.org/2000/svg" xmlns:xlink="http://www.w3.org/1999/xlink" 
	 viewBox="0 0 511.998 511.998" xml:space="preserve">
<path style="fill:#00C47A;" d="M102.056,179.312c-33.5,0-65.029-12.882-88.927-36.368L0,130.042l67.743-68.933
	c48.677-49.533,129.042-50.265,179.143-1.631l13.291,12.901l-67.798,68.99c-23.54,24.11-55.125,37.583-88.948,37.938
	C102.974,179.31,102.512,179.312,102.056,179.312z"/>
<polygon style="fill:#FFAE33;" points="277.617,83.282 277.617,13.635 240.8,13.635 240.8,83.282 119.726,349.645 153.242,364.88 
	259.209,131.756 365.175,364.88 398.691,349.645 "/>
<polygon style="fill:#BF7300;" points="277.617,83.282 277.617,13.635 259.209,13.635 259.209,131.756 365.175,364.88 
	398.691,349.645 "/>
<path style="fill:#FF318F;" d="M252.429,373.304c-2.731-22.909-14.202-41.784-31.474-51.786h-0.001
	c-17.699-10.252-36.201-12.697-53.507-7.074c-6.63,2.155-12.63,5.318-18.006,9.045c-1.772-6.297-4.385-12.555-8.127-18.437
	c-9.765-15.353-25.59-25.246-45.766-28.611c-19.687-3.28-40.549,3.97-57.241,19.899c-23.28,22.217-35.194,57.436-31.091,91.912
	c5.601,47.082,37.053,86.386,82.081,102.569c14.1,5.069,28.614,7.541,42.96,7.541c31.458,0,62.083-11.894,85.637-34.384
	C243.007,440.004,256.24,405.259,252.429,373.304z"/>
<path style="fill:#BF256B;" d="M480.108,296.34c-16.692-15.928-37.559-23.179-57.241-19.899
	c-20.176,3.364-36.001,13.258-45.766,28.611c-3.742,5.882-6.355,12.141-8.127,18.437c-5.377-3.727-11.377-6.89-18.006-9.045
	c-17.303-5.622-35.807-3.176-53.507,7.074h-0.001c-17.271,10.002-28.743,28.877-31.474,51.786
	c-3.809,31.955,9.424,66.701,34.537,90.676c23.557,22.489,54.178,34.384,85.637,34.384c14.342,0,28.862-2.474,42.96-7.541
	c45.026-16.185,76.478-55.487,82.081-102.569C515.304,353.776,503.39,318.557,480.108,296.34z"/>
</svg>