<?xml version="1.0" encoding="iso-8859-1"?>
<!-- Uploaded to: SVG Repo, www.svgrepo.com, Generator: SVG Repo Mixer Tools -->
<svg height="800px" width="800px" version="1.1" id="Layer_1" xmlns="http://www.w3.org/2000/svg" xmlns:xlink="http://www.w3.org/1999/xlink" 
	 viewBox="0 0 511.999 511.999" xml:space="preserve">
<path style="fill:#60DD4D;" d="M282.223,155.275c-11.546-38.861-49.658-68.657-113.286-88.579
	c-16.927-8.355-35.689-11.416-53.033-8.622c-19.768,3.185-36.803,13.873-47.967,30.095c-11.326,16.457-15.567,36.341-11.94,55.989
	c3.628,19.648,14.69,36.707,31.147,48.033c26.871,18.496,140.133,58.091,152.959,62.544l12.148,4.218l8.222-9.886
	C261.965,247.269,296.861,204.537,282.223,155.275z"/>
<g>
	<path style="fill:#00C47A;" d="M444.061,88.167c-11.164-16.221-28.198-26.907-47.966-30.093
		c-17.342-2.793-36.106,0.266-53.033,8.622c-63.627,19.922-101.74,49.719-113.286,88.579c-14.638,49.262,20.257,91.995,21.75,93.79
		l8.222,9.886l12.148-4.218c12.825-4.454,126.088-44.048,152.958-62.543c16.459-11.326,27.52-28.386,31.148-48.034
		C459.629,124.51,455.388,104.626,444.061,88.167z"/>
	<path style="fill:#00C47A;" d="M377.844,50.895c-6.288-18.964-19.583-34.345-37.438-43.309
		c-17.599-8.835-37.677-9.994-56.531-3.262c-10.07,3.595-19.555,9.345-27.875,16.787c-8.32-7.441-17.805-13.19-27.875-16.787
		c-18.856-6.732-38.935-5.573-56.53,3.262c-17.856,8.964-31.152,24.344-37.439,43.309c-6.286,18.964-4.813,39.242,4.152,57.098
		c14.638,29.154,94.81,118.418,103.904,128.5l13.79,15.29l13.79-15.29c9.094-10.082,89.265-99.346,103.904-128.501
		C382.656,90.138,384.13,69.86,377.844,50.895z"/>
</g>
<path style="fill:#00925B;" d="M377.844,50.895c-6.288-18.964-19.583-34.345-37.438-43.309c-17.599-8.835-37.677-9.994-56.531-3.262
	c-10.07,3.595-19.555,9.345-27.875,16.787v230.671l13.79-15.29c9.094-10.082,89.265-99.346,103.904-128.501
	C382.656,90.138,384.13,69.86,377.844,50.895z"/>
<path style="fill:#FF318F;" d="M427.264,222.608l-21.024-23.361c-38.27-42.524-93.03-66.911-150.239-66.911
	c-57.208,0-111.968,24.388-150.238,66.911l-21.025,23.361c-32.557,36.173-34.299,90.151-4.142,128.35l97.229,123.157
	c19.008,24.076,47.501,37.885,78.177,37.885s59.169-13.808,78.177-37.885l97.229-123.157
	C461.563,312.76,459.821,258.781,427.264,222.608z"/>
<path style="fill:#BF256B;" d="M427.264,222.608l-21.024-23.361c-38.27-42.524-93.03-66.911-150.239-66.911
	c-0.181,0-0.361,0.007-0.542,0.007v379.649c0.181,0.001,0.361,0.007,0.542,0.007c30.675,0,59.169-13.808,78.177-37.885
	l97.229-123.157C461.563,312.76,459.821,258.781,427.264,222.608z"/>
<circle cx="175.529" cy="309.464" r="18.569"/>
<circle cx="336.463" cy="309.464" r="18.569"/>
<circle cx="255.996" cy="247.566" r="18.569"/>
<circle cx="255.996" cy="371.361" r="18.569"/>
</svg>